<svg xmlns="http://www.w3.org/2000/svg" viewBox="0 0 64 64" width="64" height="64">
  <defs>
    <linearGradient id="g" x1="0" y1="0" x2="1" y2="1">
      <stop offset="0%" stop-color="#007BFF"/>
      <stop offset="100%" stop-color="#00BFA6"/>
    </linearGradient>
  </defs>
  <rect width="64" height="64" rx="12" fill="url(#g)"/>
  <g fill="#fff" transform="translate(12,12)">
    <path d="M20 0c11 0 20 9 20 20s-9 20-20 20S0 31 0 20 9 0 20 0zm0 4a16 16 0 100 32 16 16 0 000-32z" opacity="0.9"/>
    <path d="M14 12h12a2 2 0 012 2v6a2 2 0 01-2 2H14a2 2 0 01-2-2v-6a2 2 0 012-2zm0 2v6h12v-6H14z"/>
    <circle cx="26" cy="24" r="2"/>
  </g>
</svg>
